<svg width="646" height="671" viewBox="0 0 646 671" fill="none" xmlns="http://www.w3.org/2000/svg">
<path d="M434.446 143H216.946L114.446 262.5H24.4458C-8.55416 262.5 -8.55365 323.5 26.9461 323.5H129.946C137.546 324.7 144.779 318.667 147.446 315.5L208.446 246.5C223.279 278.167 253.546 342.6 255.946 347C258.346 351.4 256.946 358.167 255.946 361L101.946 671H164.446C190.446 671 200.946 649.5 213.946 625.5L336.946 381L344.946 531.5C346.946 554.5 367.946 563.5 385.446 563.5H645.946C645.946 520.5 596.946 494.5 575.946 494.5H422.946C418.146 494.1 417.946 489.667 418.446 487.5L409.946 352.5C407.946 330.1 402.446 318.833 399.946 316L349.946 206H418.446L470.446 295C489.446 327.5 542.446 295 522.446 264L467.446 170C455.946 150 442.446 143.167 434.446 143Z" fill="white"/>
<path d="M289 64C289 31.5 263 0 225.5 0C188 0 161.5 33 161 64C160.5 95 186 128 225 128C264 128 289 96.5 289 64Z" fill="white"/>
</svg>
